<svg width="515" height="393" viewBox="0 0 515 393" fill="none" xmlns="http://www.w3.org/2000/svg">
<path fill-rule="evenodd" clip-rule="evenodd" d="M328.022 126.039C384.6 126.039 493.273 105.873 493.273 105.873C493.091 105.292 448.459 102.036 387.961 82.9059C327.462 63.776 295.474 61.7177 268.643 63.86C209.081 68.6156 169.492 102.512 169.492 102.512C169.492 102.512 200.862 84.0263 219.348 77.8643C237.834 71.7024 235.593 75.0635 235.593 75.0635L186.858 105.873C186.858 105.873 116.836 105.873 100.591 106.993C84.3457 108.114 68.6608 109.794 50.175 115.396C31.6893 120.998 18.8053 136.123 18.8053 136.123C18.8053 136.123 33.3698 123.799 67.5405 118.197C101.711 112.595 271.444 126.039 328.022 126.039ZM307.856 105.873C264.162 105.873 197.501 106.993 197.501 106.993C197.501 106.993 221.589 87.3873 243.435 77.8643C265.282 68.3414 286.569 73.9431 297.212 75.0635C307.856 76.1838 396.923 96.3501 396.923 96.3501C396.923 96.3501 351.549 105.873 307.856 105.873Z" fill="#334155"/>
<path d="M463.584 98.5908C463.584 98.5908 471.987 90.7484 488.232 89.628C504.477 88.5077 514 92.9891 514 92.9891C514 92.9891 507.838 101.952 493.273 102.512C478.709 103.072 463.584 98.5908 463.584 98.5908Z" fill="#334155"/>
<path d="M460.783 115.956L492.153 109.234C492.153 109.234 492.713 114.836 495.514 120.998C498.315 127.16 506.158 134.442 506.718 140.044C507.278 145.646 503.917 159.09 503.917 159.09C503.917 159.09 502.796 141.164 497.195 134.442C491.593 127.72 476.468 127.72 468.626 124.919C460.783 122.118 460.783 115.956 460.783 115.956Z" fill="#334155"/>
<path d="M2 159.65L25.5273 152.368C25.5273 152.368 42.8928 135.562 59.698 127.72C76.5033 119.877 95.5492 119.877 95.5492 119.877C95.5492 119.877 74.8228 118.197 43.4529 127.72C12.0831 137.243 2 159.65 2 159.65Z" fill="#334155"/>
<path fill-rule="evenodd" clip-rule="evenodd" d="M328.022 126.039C384.6 126.039 493.273 105.873 493.273 105.873C493.091 105.292 448.459 102.036 387.961 82.9059C327.462 63.776 295.474 61.7177 268.643 63.86C209.081 68.6156 169.492 102.512 169.492 102.512C169.492 102.512 200.862 84.0263 219.348 77.8643C237.834 71.7024 235.593 75.0635 235.593 75.0635L186.858 105.873C186.858 105.873 116.836 105.873 100.591 106.993C84.3457 108.114 68.6608 109.794 50.175 115.396C31.6893 120.998 18.8053 136.123 18.8053 136.123C18.8053 136.123 33.3698 123.799 67.5405 118.197C101.711 112.595 271.444 126.039 328.022 126.039ZM307.856 105.873C264.162 105.873 197.501 106.993 197.501 106.993C197.501 106.993 221.589 87.3873 243.435 77.8643C265.282 68.3414 286.569 73.9431 297.212 75.0635C307.856 76.1838 396.923 96.3501 396.923 96.3501C396.923 96.3501 351.549 105.873 307.856 105.873Z" stroke="#334155" stroke-width="1.12035"/>
<path d="M463.584 98.5908C463.584 98.5908 471.987 90.7484 488.232 89.628C504.477 88.5077 514 92.9891 514 92.9891C514 92.9891 507.838 101.952 493.273 102.512C478.709 103.072 463.584 98.5908 463.584 98.5908Z" stroke="#334155" stroke-width="1.12035"/>
<path d="M460.783 115.956L492.153 109.234C492.153 109.234 492.713 114.836 495.514 120.998C498.315 127.16 506.158 134.442 506.718 140.044C507.278 145.646 503.917 159.09 503.917 159.09C503.917 159.09 502.796 141.164 497.195 134.442C491.593 127.72 476.468 127.72 468.626 124.919C460.783 122.118 460.783 115.956 460.783 115.956Z" stroke="#334155" stroke-width="1.12035"/>
<path d="M2 159.65L25.5273 152.368C25.5273 152.368 42.8928 135.562 59.698 127.72C76.5033 119.877 95.5492 119.877 95.5492 119.877C95.5492 119.877 74.8228 118.197 43.4529 127.72C12.0831 137.243 2 159.65 2 159.65Z" stroke="#334155" stroke-width="1.12035"/>
<path d="M48.5393 216.807V182.054H34.759V169.753H78.1838V182.054H64.4035V216.807H48.5393ZM112.823 169.753H128.687V216.807H112.823V169.753ZM98.1684 216.807H82.3043V169.753H98.1684V216.807ZM113.898 199.464H97.0929V186.424H113.898V199.464ZM136.331 216.807V169.753H152.195V216.807H136.331ZM174.351 187.23H195.324V198.658H174.351V187.23ZM175.427 204.842H198.954V216.807H159.832V169.753H198.08V181.718H175.427V204.842ZM163.932 165.921L172.536 155.166H185.443L194.047 165.921H184.636L175.091 157.182H182.888L173.343 165.921H163.932ZM205.061 216.807V169.753H218.102L242.033 198.389H235.983V169.753H251.444V216.807H238.403L214.472 188.171H220.522V216.807H205.061ZM279.241 216.807V169.753H301.894C306.286 169.753 310.073 170.47 313.255 171.904C316.481 173.338 318.968 175.399 320.716 178.088C322.464 180.732 323.338 183.869 323.338 187.499C323.338 191.129 322.464 194.266 320.716 196.91C318.968 199.554 316.481 201.615 313.255 203.094C310.073 204.528 306.286 205.245 301.894 205.245H288.047L295.105 198.456V216.807H279.241ZM295.105 200.204L288.047 193.011H300.886C303.082 193.011 304.695 192.518 305.726 191.532C306.801 190.546 307.339 189.202 307.339 187.499C307.339 185.796 306.801 184.452 305.726 183.466C304.695 182.48 303.082 181.987 300.886 181.987H288.047L295.105 174.794V200.204ZM359.059 169.753H374.923V216.807H359.059V169.753ZM344.405 216.807H328.541V169.753H344.405V216.807ZM360.135 199.464H343.329V186.424H360.135V199.464ZM405.086 217.883C397.871 217.883 392.247 215.934 388.213 212.035C384.18 208.136 382.164 202.669 382.164 195.633V169.753H398.028V195.162C398.028 198.747 398.678 201.302 399.977 202.825C401.277 204.304 403.024 205.044 405.22 205.044C407.461 205.044 409.209 204.304 410.464 202.825C411.763 201.302 412.413 198.747 412.413 195.162V169.753H428.008V195.633C428.008 202.669 425.992 208.136 421.958 212.035C417.925 215.934 412.301 217.883 405.086 217.883ZM398.162 165.921L407.035 155.166H421.488L408.245 165.921H398.162ZM459.614 217.883C455.85 217.883 452.354 217.3 449.128 216.135C445.946 214.925 443.167 213.222 440.792 211.026C438.462 208.831 436.647 206.231 435.347 203.229C434.048 200.226 433.398 196.91 433.398 193.28C433.398 189.65 434.048 186.334 435.347 183.331C436.647 180.329 438.462 177.73 440.792 175.534C443.167 173.338 445.946 171.657 449.128 170.492C452.354 169.282 455.85 168.677 459.614 168.677C464.23 168.677 468.308 169.484 471.848 171.097C475.434 172.71 478.391 175.041 480.722 178.088L470.706 187.029C469.316 185.281 467.77 183.936 466.067 182.995C464.409 182.009 462.527 181.516 460.421 181.516C458.763 181.516 457.261 181.785 455.917 182.323C454.573 182.861 453.407 183.645 452.422 184.676C451.48 185.707 450.741 186.961 450.203 188.44C449.666 189.874 449.397 191.488 449.397 193.28C449.397 195.073 449.666 196.708 450.203 198.187C450.741 199.621 451.48 200.854 452.422 201.884C453.407 202.915 454.573 203.699 455.917 204.237C457.261 204.775 458.763 205.044 460.421 205.044C462.527 205.044 464.409 204.573 466.067 203.632C467.77 202.646 469.316 201.279 470.706 199.532L480.722 208.472C478.391 211.475 475.434 213.805 471.848 215.463C468.308 217.076 464.23 217.883 459.614 217.883Z" fill="#3B82F6"/>
<path d="M130.749 264.074L124.592 245.253H129.109L134.46 261.923H132.201L137.794 245.253H141.827L147.205 261.923H145.027L150.512 245.253H154.68L148.522 264.074H143.844L139.084 249.447H140.321L135.428 264.074H130.749ZM179.488 264.397C178 264.397 176.619 264.155 175.347 263.671C174.092 263.187 172.999 262.506 172.066 261.628C171.152 260.749 170.435 259.718 169.915 258.535C169.413 257.352 169.162 256.062 169.162 254.663C169.162 253.265 169.413 251.975 169.915 250.792C170.435 249.608 171.161 248.578 172.093 247.699C173.025 246.821 174.119 246.14 175.374 245.656C176.628 245.172 177.991 244.93 179.461 244.93C180.949 244.93 182.311 245.172 183.548 245.656C184.803 246.14 185.887 246.821 186.801 247.699C187.733 248.578 188.459 249.608 188.979 250.792C189.499 251.957 189.759 253.247 189.759 254.663C189.759 256.062 189.499 257.361 188.979 258.562C188.459 259.745 187.733 260.776 186.801 261.654C185.887 262.515 184.803 263.187 183.548 263.671C182.311 264.155 180.957 264.397 179.488 264.397ZM179.461 260.686C180.303 260.686 181.074 260.543 181.773 260.256C182.49 259.969 183.118 259.557 183.655 259.019C184.193 258.482 184.605 257.845 184.892 257.11C185.197 256.375 185.349 255.56 185.349 254.663C185.349 253.767 185.197 252.952 184.892 252.217C184.605 251.482 184.193 250.845 183.655 250.308C183.135 249.77 182.517 249.357 181.8 249.071C181.083 248.784 180.303 248.64 179.461 248.64C178.618 248.64 177.838 248.784 177.121 249.071C176.422 249.357 175.804 249.77 175.266 250.308C174.728 250.845 174.307 251.482 174.002 252.217C173.716 252.952 173.572 253.767 173.572 254.663C173.572 255.542 173.716 256.357 174.002 257.11C174.307 257.845 174.719 258.482 175.239 259.019C175.777 259.557 176.404 259.969 177.121 260.256C177.838 260.543 178.618 260.686 179.461 260.686ZM206.477 264.074V245.253H214.624C216.309 245.253 217.761 245.53 218.98 246.086C220.199 246.624 221.14 247.404 221.803 248.425C222.466 249.447 222.798 250.666 222.798 252.082C222.798 253.48 222.466 254.69 221.803 255.712C221.14 256.716 220.199 257.487 218.98 258.025C217.761 258.562 216.309 258.831 214.624 258.831H208.897L210.833 256.922V264.074H206.477ZM218.442 264.074L213.737 257.245H218.388L223.148 264.074H218.442ZM210.833 257.406L208.897 255.363H214.382C215.726 255.363 216.73 255.076 217.394 254.502C218.057 253.911 218.388 253.104 218.388 252.082C218.388 251.043 218.057 250.236 217.394 249.662C216.73 249.089 215.726 248.802 214.382 248.802H208.897L210.833 246.731V257.406ZM243.592 259.772L243.35 254.744L252.358 245.253H257.198L249.078 253.991L246.658 256.573L243.592 259.772ZM239.693 264.074V245.253H244.022V264.074H239.693ZM252.573 264.074L245.878 255.873L248.728 252.781L257.655 264.074H252.573ZM278.832 264.397C277.326 264.397 275.883 264.2 274.503 263.806C273.123 263.393 272.011 262.864 271.169 262.219L272.648 258.939C273.454 259.512 274.404 259.987 275.498 260.364C276.609 260.722 277.729 260.902 278.859 260.902C279.719 260.902 280.409 260.821 280.929 260.66C281.467 260.48 281.861 260.238 282.112 259.934C282.363 259.629 282.489 259.279 282.489 258.885C282.489 258.383 282.291 257.989 281.897 257.702C281.503 257.397 280.983 257.155 280.338 256.976C279.692 256.779 278.975 256.599 278.187 256.438C277.416 256.259 276.636 256.044 275.847 255.793C275.076 255.542 274.368 255.219 273.723 254.825C273.078 254.43 272.549 253.911 272.137 253.265C271.742 252.62 271.545 251.795 271.545 250.792C271.545 249.716 271.832 248.739 272.406 247.861C272.997 246.964 273.875 246.256 275.041 245.737C276.224 245.199 277.703 244.93 279.477 244.93C280.66 244.93 281.825 245.073 282.973 245.36C284.12 245.629 285.133 246.041 286.011 246.597L284.667 249.904C283.788 249.402 282.91 249.035 282.032 248.802C281.153 248.551 280.293 248.425 279.45 248.425C278.608 248.425 277.918 248.524 277.38 248.721C276.842 248.918 276.457 249.178 276.224 249.501C275.991 249.806 275.874 250.164 275.874 250.576C275.874 251.06 276.071 251.455 276.466 251.76C276.86 252.046 277.38 252.279 278.025 252.459C278.671 252.638 279.379 252.817 280.149 252.996C280.938 253.176 281.718 253.382 282.489 253.615C283.277 253.848 283.994 254.162 284.64 254.556C285.285 254.95 285.805 255.47 286.199 256.115C286.612 256.761 286.818 257.576 286.818 258.562C286.818 259.62 286.522 260.588 285.93 261.466C285.339 262.345 284.452 263.053 283.268 263.59C282.103 264.128 280.624 264.397 278.832 264.397ZM316.145 245.253H320.501V264.074H316.145V245.253ZM307.594 264.074H303.238V245.253H307.594V264.074ZM316.467 256.357H307.272V252.674H316.467V256.357ZM347.54 264.397C346.052 264.397 344.672 264.155 343.399 263.671C342.145 263.187 341.051 262.506 340.119 261.628C339.205 260.749 338.488 259.718 337.968 258.535C337.466 257.352 337.215 256.062 337.215 254.663C337.215 253.265 337.466 251.975 337.968 250.792C338.488 249.608 339.214 248.578 340.146 247.699C341.078 246.821 342.171 246.14 343.426 245.656C344.681 245.172 346.043 244.93 347.513 244.93C349.001 244.93 350.363 245.172 351.6 245.656C352.855 246.14 353.94 246.821 354.854 247.699C355.786 248.578 356.512 249.608 357.032 250.792C357.552 251.957 357.811 253.247 357.811 254.663C357.811 256.062 357.552 257.361 357.032 258.562C356.512 259.745 355.786 260.776 354.854 261.654C353.94 262.515 352.855 263.187 351.6 263.671C350.363 264.155 349.01 264.397 347.54 264.397ZM347.513 260.686C348.356 260.686 349.127 260.543 349.826 260.256C350.543 259.969 351.17 259.557 351.708 259.019C352.246 258.482 352.658 257.845 352.945 257.11C353.249 256.375 353.402 255.56 353.402 254.663C353.402 253.767 353.249 252.952 352.945 252.217C352.658 251.482 352.246 250.845 351.708 250.308C351.188 249.77 350.57 249.357 349.853 249.071C349.135 248.784 348.356 248.64 347.513 248.64C346.671 248.64 345.891 248.784 345.174 249.071C344.475 249.357 343.856 249.77 343.319 250.308C342.781 250.845 342.36 251.482 342.055 252.217C341.768 252.952 341.625 253.767 341.625 254.663C341.625 255.542 341.768 256.357 342.055 257.11C342.36 257.845 342.772 258.482 343.292 259.019C343.83 259.557 344.457 259.969 345.174 260.256C345.891 260.543 346.671 260.686 347.513 260.686ZM374.529 264.074V245.253H382.677C384.362 245.253 385.814 245.53 387.032 246.086C388.251 246.624 389.192 247.404 389.856 248.425C390.519 249.447 390.851 250.666 390.851 252.082C390.851 253.48 390.519 254.69 389.856 255.712C389.192 256.734 388.251 257.523 387.032 258.078C385.814 258.616 384.362 258.885 382.677 258.885H376.949L378.885 256.922V264.074H374.529ZM378.885 257.406L376.949 255.336H382.435C383.779 255.336 384.783 255.049 385.446 254.475C386.109 253.902 386.441 253.104 386.441 252.082C386.441 251.043 386.109 250.236 385.446 249.662C384.783 249.089 383.779 248.802 382.435 248.802H376.949L378.885 246.731V257.406Z" fill="#334155"/>
<path d="M473.335 285.117L473.326 285.609C473.141 290.678 470.112 295.23 465.473 297.348L263.573 389.49L263.24 389.637C259.891 391.057 256.108 391.059 252.758 389.643L252.424 389.496L49.877 297.343C45.0798 295.16 42 290.376 42 285.105V268.324H55.4443V285.105L257.991 377.259L459.891 285.117V268.324H473.335V285.117ZM460.237 0.00390667C467.502 0.187791 473.335 6.13522 473.335 13.4443V70.8086L459.891 76.0107V13.4443H55.4443V91.2568L42 96.2773V13.4443C42 6.13517 47.8328 0.187715 55.0977 0.00390667L55.4443 4.22692e-07H459.891L460.237 0.00390667Z" fill="#3B82F6"/>
<path fill-rule="evenodd" clip-rule="evenodd" d="M209 330.198L200.7 335.198C200.333 335.431 199.95 335.531 199.55 335.498C199.15 335.464 198.8 335.331 198.5 335.098C198.2 334.864 197.967 334.573 197.8 334.223C197.633 333.873 197.6 333.481 197.7 333.048L199.9 323.598L192.55 317.248C192.217 316.948 192.008 316.606 191.925 316.223C191.842 315.839 191.867 315.464 192 315.098C192.133 314.731 192.333 314.431 192.6 314.198C192.867 313.964 193.233 313.814 193.7 313.748L203.4 312.898L207.15 303.998C207.317 303.598 207.575 303.298 207.925 303.098C208.275 302.898 208.633 302.798 209 302.798C209.367 302.798 209.725 302.898 210.075 303.098C210.425 303.298 210.683 303.598 210.85 303.998L214.6 312.898L224.3 313.748C224.767 313.814 225.133 313.964 225.4 314.198C225.667 314.431 225.867 314.731 226 315.098C226.133 315.464 226.158 315.839 226.075 316.223C225.992 316.606 225.783 316.948 225.45 317.248L218.1 323.598L220.3 333.048C220.4 333.481 220.367 333.873 220.2 334.223C220.033 334.573 219.8 334.864 219.5 335.098C219.2 335.331 218.85 335.464 218.45 335.498C218.05 335.531 217.667 335.431 217.3 335.198L209 330.198ZM209 325.498L202.7 329.298L204.35 322.148L198.8 317.298L206.1 316.648L209 309.898L211.9 316.698L219.2 317.348L213.65 322.148L215.3 329.348L209 325.498Z" fill="#3B82F6"/>
<path d="M202.7 329.298L209 325.498L215.3 329.348L213.65 322.148L219.2 317.348L211.9 316.698L209 309.898L206.1 316.648L198.8 317.298L204.35 322.148L202.7 329.298Z" fill="#3B82F6"/>
<path fill-rule="evenodd" clip-rule="evenodd" d="M257 330.198L248.7 335.198C248.333 335.431 247.95 335.531 247.55 335.498C247.15 335.464 246.8 335.331 246.5 335.098C246.2 334.864 245.967 334.573 245.8 334.223C245.633 333.873 245.6 333.481 245.7 333.048L247.9 323.598L240.55 317.248C240.217 316.948 240.008 316.606 239.925 316.223C239.842 315.839 239.867 315.464 240 315.098C240.133 314.731 240.333 314.431 240.6 314.198C240.867 313.964 241.233 313.814 241.7 313.748L251.4 312.898L255.15 303.998C255.317 303.598 255.575 303.298 255.925 303.098C256.275 302.898 256.633 302.798 257 302.798C257.367 302.798 257.725 302.898 258.075 303.098C258.425 303.298 258.683 303.598 258.85 303.998L262.6 312.898L272.3 313.748C272.767 313.814 273.133 313.964 273.4 314.198C273.667 314.431 273.867 314.731 274 315.098C274.133 315.464 274.158 315.839 274.075 316.223C273.992 316.606 273.783 316.948 273.45 317.248L266.1 323.598L268.3 333.048C268.4 333.481 268.367 333.873 268.2 334.223C268.033 334.573 267.8 334.864 267.5 335.098C267.2 335.331 266.85 335.464 266.45 335.498C266.05 335.531 265.667 335.431 265.3 335.198L257 330.198ZM257 325.498L250.7 329.298L252.35 322.148L246.8 317.298L254.1 316.648L257 309.898L259.9 316.698L267.2 317.348L261.65 322.148L263.3 329.348L257 325.498Z" fill="#3B82F6"/>
<path d="M250.7 329.298L257 325.498L263.3 329.348L261.65 322.148L267.2 317.348L259.9 316.698L257 309.898L254.1 316.648L246.8 317.298L252.35 322.148L250.7 329.298Z" fill="#3B82F6"/>
<path fill-rule="evenodd" clip-rule="evenodd" d="M305 330.198L296.7 335.198C296.333 335.431 295.95 335.531 295.55 335.498C295.15 335.464 294.8 335.331 294.5 335.098C294.2 334.864 293.967 334.573 293.8 334.223C293.633 333.873 293.6 333.481 293.7 333.048L295.9 323.598L288.55 317.248C288.217 316.948 288.008 316.606 287.925 316.223C287.842 315.839 287.867 315.464 288 315.098C288.133 314.731 288.333 314.431 288.6 314.198C288.867 313.964 289.233 313.814 289.7 313.748L299.4 312.898L303.15 303.998C303.317 303.598 303.575 303.298 303.925 303.098C304.275 302.898 304.633 302.798 305 302.798C305.367 302.798 305.725 302.898 306.075 303.098C306.425 303.298 306.683 303.598 306.85 303.998L310.6 312.898L320.3 313.748C320.767 313.814 321.133 313.964 321.4 314.198C321.667 314.431 321.867 314.731 322 315.098C322.133 315.464 322.158 315.839 322.075 316.223C321.992 316.606 321.783 316.948 321.45 317.248L314.1 323.598L316.3 333.048C316.4 333.481 316.367 333.873 316.2 334.223C316.033 334.573 315.8 334.864 315.5 335.098C315.2 335.331 314.85 335.464 314.45 335.498C314.05 335.531 313.667 335.431 313.3 335.198L305 330.198ZM305 325.498L298.7 329.298L300.35 322.148L294.8 317.298L302.1 316.648L305 309.898L307.9 316.698L315.2 317.348L309.65 322.148L311.3 329.348L305 325.498Z" fill="#3B82F6"/>
<path d="M298.7 329.298L305 325.498L311.3 329.348L309.65 322.148L315.2 317.348L307.9 316.698L305 309.898L302.1 316.648L294.8 317.298L300.35 322.148L298.7 329.298Z" fill="#3B82F6"/>
</svg>
